<?xml version="1.0"?>
<svg width="800" height="780" xmlns="http://www.w3.org/2000/svg" xmlns:svg="http://www.w3.org/2000/svg">
 <!-- Background -->
 <!-- Title -->
 <!-- System boundary box -->
 <!-- ── USE CASE ELLIPSES ── -->
 <!-- Register / Login -->
 <!-- Configure Run -->
 <!-- Select Output Format (include) -->
 <!-- Save / Download Output -->
 <!-- Save Combo Template -->
 <!-- View Run History -->
 <!-- Add LoRA Model -->
 <!-- Edit LoRA Model -->
 <!-- Delete LoRA Model -->
 <!-- ── ACTOR: User ── -->
 <!-- ── ACTOR: Operator ── -->
 <!-- ── ACTOR: Admin ── -->
 <!-- ── ACTOR → USE CASE LINES ── -->
 <!-- User → Register/Login -->
 <!-- Operator → Configure Run -->
 <!-- Operator → Save/Download Output -->
 <!-- Operator → Save Combo Template -->
 <!-- Operator → View Run History -->
 <!-- Admin → Add LoRA -->
 <!-- Admin → Edit LoRA -->
 <!-- Admin → Delete LoRA -->
 <!-- ── INCLUDE ARROW: Configure Run → Select Output Format ── -->
 <!-- Arrow marker definition -->
 <defs>
  <marker id="dashed-arrow" markerHeight="6" markerWidth="6" orient="auto-start-reverse" refX="8" refY="5" viewBox="0 0 10 10">
   <path d="m2,1l6,4l-6,4" fill="none" id="svg_1" stroke="#888" stroke-linecap="round" stroke-linejoin="round" stroke-width="1.5"/>
  </marker>
 </defs>
 <g class="layer">
  <title>Layer 1</title>
  <text fill="#333" font-size="16" font-weight="bold" id="svg_3" text-anchor="middle" x="400" y="30">uc AIVP_UCD</text>
  <rect fill="none" height="710" id="svg_4" rx="10" stroke="#888" stroke-dasharray="8 4" stroke-width="1.5" transform="matrix(1 0 0 1 0 0)" width="560" x="180" y="57">Register / Login</rect>
  <text fill="#888" font-size="12" font-style="italic" id="svg_5" x="220" y="72">AIVP System</text>
  <ellipse cx="430" cy="115" fill="#d7f7e4" id="svg_6" rx="120" ry="28" stroke="#2dbf6a" stroke-width="1.2" transform="matrix(1 0 0 1 0 0)"/>
  <text fill="#1a7540" font-size="13" font-weight="bold" id="svg_7" style="cursor: move;" text-anchor="middle" x="430" y="119">Register / Login</text>
  <ellipse cx="390" cy="210" fill="#D5F5E3" id="svg_8" rx="115" ry="28" stroke="#1E8449" stroke-width="1.2"/>
  <text fill="#145A32" font-size="13" font-weight="bold" id="svg_9" text-anchor="middle" x="390" y="214">Configure run</text>
  <ellipse cx="600" cy="290" fill="#D5F5E3" id="svg_10" rx="110" ry="26" stroke="#1E8449" stroke-dasharray="5 3" stroke-width="1.2"/>
  <text fill="#145A32" font-size="12" font-weight="bold" id="svg_11" text-anchor="middle" x="600" y="294">Select output format</text>
  <ellipse cx="390" cy="370" fill="#D5F5E3" id="svg_12" rx="125" ry="28" stroke="#1E8449" stroke-width="1.2" transform="matrix(1 0 0 1 0 0)"/>
  <text fill="#145A32" font-size="13" font-weight="bold" id="svg_13" text-anchor="middle" x="390" y="374">Save / download output</text>
  <ellipse cx="390" cy="455" fill="#D5F5E3" id="svg_14" rx="125" ry="28" stroke="#1E8449" stroke-width="1.2"/>
  <text fill="#145A32" font-size="13" font-weight="bold" id="svg_15" text-anchor="middle" x="390" y="459">Save combo template</text>
  <ellipse cx="390" cy="540" fill="#D5F5E3" id="svg_16" rx="125" ry="28" stroke="#1E8449" stroke-width="1.2"/>
  <text fill="#145A32" font-size="13" font-weight="bold" id="svg_17" text-anchor="middle" x="390" y="544">View run history</text>
  <ellipse cx="590" cy="620" fill="#FADBD8" id="svg_18" rx="105" ry="26" stroke="#C0392B" stroke-width="1.2"/>
  <text fill="#7B241C" font-size="12" font-weight="bold" id="svg_19" text-anchor="middle" x="590" y="624">Add LoRA model</text>
  <ellipse cx="590" cy="685" fill="#FADBD8" id="svg_20" rx="105" ry="26" stroke="#C0392B" stroke-width="1.2"/>
  <text fill="#7B241C" font-size="12" font-weight="bold" id="svg_21" text-anchor="middle" x="590" y="689">Edit LoRA model</text>
  <ellipse cx="590" cy="750" fill="#FADBD8" id="svg_22" rx="105" ry="26" stroke="#C0392B" stroke-width="1.2"/>
  <text fill="#7B241C" font-size="12" font-weight="bold" id="svg_23" text-anchor="middle" x="590" y="754">Delete LoRA model</text>
  <circle cx="70" cy="380" fill="none" id="svg_30" r="18" stroke="#555" stroke-width="1.5"/>
  <line id="svg_31" stroke="#555" stroke-width="1.5" x1="70" x2="70" y1="398" y2="435"/>
  <line id="svg_32" stroke="#555" stroke-width="1.5" x1="44" x2="96" y1="415" y2="415"/>
  <line id="svg_33" stroke="#555" stroke-width="1.5" x1="70" x2="50" y1="435" y2="460"/>
  <line id="svg_34" stroke="#555" stroke-width="1.5" x1="70" x2="90" y1="435" y2="460"/>
  <text fill="#333" font-size="13" font-weight="bold" id="svg_35" style="cursor: move;" text-anchor="middle" transform="matrix(1 0 0 1 0 0)" x="70" y="476">User</text>
  <circle cx="70" cy="685" fill="none" id="svg_36" r="18" stroke="#555" stroke-width="1.5"/>
  <line id="svg_37" stroke="#555" stroke-width="1.5" x1="70" x2="70" y1="703" y2="740"/>
  <line id="svg_38" stroke="#555" stroke-width="1.5" x1="44" x2="96" y1="720" y2="720"/>
  <line id="svg_39" stroke="#555" stroke-width="1.5" x1="70" x2="50" y1="740" y2="765"/>
  <line id="svg_40" stroke="#555" stroke-width="1.5" x1="70" x2="90" y1="740" y2="765"/>
  <text fill="#333" font-size="13" font-weight="bold" id="svg_41" text-anchor="middle" x="70" y="775">Admin</text>
  <line id="svg_43" stroke="#555" stroke-width="1.2" x1="88" x2="275" y1="372" y2="225"/>
  <line id="svg_44" stroke="#555" stroke-width="1.2" x1="88" x2="265" y1="378" y2="370"/>
  <line id="svg_45" stroke="#555" stroke-width="1.2" x1="88" x2="265" y1="385" y2="450"/>
  <line id="svg_46" stroke="#555" stroke-width="1.2" x1="88" x2="265" y1="390" y2="535"/>
  <line id="svg_47" stroke="#555" stroke-width="1.2" x1="88" x2="485" y1="678" y2="623"/>
  <line id="svg_48" stroke="#555" stroke-width="1.2" x1="88" x2="485" y1="685" y2="685"/>
  <line id="svg_49" stroke="#555" stroke-width="1.2" x1="88" x2="485" y1="692" y2="748"/>
  <line id="svg_50" marker-end="url(#dashed-arrow)" stroke="#888" stroke-dasharray="5 3" x1="505" x2="530" y1="225" y2="268"/>
  <text fill="#888" font-size="11" font-style="italic" id="svg_51" x="535" y="248">«include»</text>
  <line fill="none" id="svg_53" stroke="#555" stroke-width="1.2" transform="matrix(1 0 0 1 0 0)" x1="84" x2="303" y1="366" y2="124"/>
 </g>
</svg>