<svg width="1400" height="980" viewBox="0 0 1400 980" xmlns="http://www.w3.org/2000/svg" font-family="Arial, sans-serif">

  <!-- Outer background -->
  <rect width="1400" height="980" fill="#1a1a2e"/>

  <!-- ═══════════════════════════════════════════════
       SCREEN 1: Configure Run (main page)
  ═══════════════════════════════════════════════ -->
  <rect x="30" y="20" width="640" height="620" rx="12" fill="#0f0f23" stroke="#2a2a4a" stroke-width="1.5"/>

  <!-- Top nav bar -->
  <rect x="30" y="20" width="640" height="60" rx="12" fill="#16213e" stroke="#2a2a4a" stroke-width="1.5"/>
  <rect x="30" y="60" width="640" height="20" fill="#16213e"/>
  <!-- Logo -->
  <text x="58" y="48" font-size="13" font-weight="bold" fill="#7B68EE">⚡</text>
  <text x="76" y="48" font-size="14" font-weight="bold" fill="white">AIVP</text>
  <text x="76" y="62" font-size="10" fill="#6B7280">AI Visual Production</text>

  <!-- Nav tabs -->
  <line x1="30" y1="88" x2="670" y2="88" stroke="#2a2a4a" stroke-width="1"/>
  <text x="58" y="110" font-size="12" fill="white">⚙ Configure</text>
  <line x1="58" y1="116" x2="138" y2="116" stroke="#60A5FA" stroke-width="2"/>
  <text x="165" y="110" font-size="12" fill="#6B7280">📋 Templates</text>
  <text x="270" y="110" font-size="12" fill="#6B7280">📖 History</text>
  <text x="360" y="110" font-size="12" fill="#6B7280">📁 Library</text>

  <!-- Configure your run title -->
  <text x="58" y="155" font-size="16" font-weight="bold" fill="white">Configure your run</text>

  <!-- Row 1: 4 parameter cards -->
  <!-- PERSON -->
  <rect x="52" y="168" width="134" height="78" rx="8" fill="#1a1a3e" stroke="#2d2d5e" stroke-width="1"/>
  <text x="68" y="188" font-size="9" fill="#60A5FA">👤 PERSON</text>
  <rect x="62" y="196" width="114" height="30" rx="5" fill="#0f0f2e" stroke="#3d3d6e" stroke-width="1"/>
  <text x="76" y="216" font-size="11" fill="#9CA3AF">Select...</text>
  <text x="162" y="216" font-size="10" fill="#6B7280">▾</text>

  <!-- CONTENT-TYPE -->
  <rect x="196" y="168" width="134" height="78" rx="8" fill="#1a1a3e" stroke="#2d2d5e" stroke-width="1"/>
  <text x="210" y="188" font-size="9" fill="#60A5FA">🎨 CONTENT-TYPE</text>
  <rect x="206" y="196" width="114" height="30" rx="5" fill="#0f0f2e" stroke="#3d3d6e" stroke-width="1"/>
  <text x="220" y="216" font-size="11" fill="#9CA3AF">Select...</text>
  <text x="306" y="216" font-size="10" fill="#6B7280">▾</text>

  <!-- PLATFORM -->
  <rect x="340" y="168" width="134" height="78" rx="8" fill="#1a1a3e" stroke="#2d2d5e" stroke-width="1"/>
  <text x="354" y="188" font-size="9" fill="#60A5FA">🌐 PLATFORM</text>
  <rect x="350" y="196" width="114" height="30" rx="5" fill="#0f0f2e" stroke="#3d3d6e" stroke-width="1"/>
  <text x="364" y="216" font-size="11" fill="#9CA3AF">Select...</text>
  <text x="450" y="216" font-size="10" fill="#6B7280">▾</text>

  <!-- FORMAT -->
  <rect x="484" y="168" width="134" height="78" rx="8" fill="#1a1a3e" stroke="#2d2d5e" stroke-width="1"/>
  <text x="498" y="188" font-size="9" fill="#60A5FA">📐 FORMAT</text>
  <rect x="494" y="196" width="114" height="30" rx="5" fill="#0f0f2e" stroke="#3d3d6e" stroke-width="1"/>
  <text x="508" y="216" font-size="11" fill="#9CA3AF">Select...</text>
  <text x="594" y="216" font-size="10" fill="#6B7280">▾</text>

  <!-- Row 2: 4 parameter cards -->
  <!-- SCENERY -->
  <rect x="52" y="258" width="134" height="78" rx="8" fill="#1a1a3e" stroke="#2d2d5e" stroke-width="1"/>
  <text x="68" y="278" font-size="9" fill="#60A5FA">🏙 SCENERY</text>
  <rect x="62" y="286" width="114" height="30" rx="5" fill="#0f0f2e" stroke="#3d3d6e" stroke-width="1"/>
  <text x="76" y="306" font-size="11" fill="#9CA3AF">Select...</text>
  <text x="162" y="306" font-size="10" fill="#6B7280">▾</text>

  <!-- OUTFIT -->
  <rect x="196" y="258" width="134" height="78" rx="8" fill="#1a1a3e" stroke="#2d2d5e" stroke-width="1"/>
  <text x="210" y="278" font-size="9" fill="#60A5FA">👗 OUTFIT</text>
  <rect x="206" y="286" width="114" height="30" rx="5" fill="#0f0f2e" stroke="#3d3d6e" stroke-width="1"/>
  <text x="220" y="306" font-size="11" fill="#9CA3AF">Select...</text>
  <text x="306" y="306" font-size="10" fill="#6B7280">▾</text>

  <!-- LIGHTING -->
  <rect x="340" y="258" width="134" height="78" rx="8" fill="#1a1a3e" stroke="#2d2d5e" stroke-width="1"/>
  <text x="354" y="278" font-size="9" fill="#60A5FA">💡 LIGHTING</text>
  <rect x="350" y="286" width="114" height="30" rx="5" fill="#0f0f2e" stroke="#3d3d6e" stroke-width="1"/>
  <text x="364" y="306" font-size="11" fill="#9CA3AF">Select...</text>
  <text x="450" y="306" font-size="10" fill="#6B7280">▾</text>

  <!-- PERSPECTIVE -->
  <rect x="484" y="258" width="134" height="78" rx="8" fill="#1a1a3e" stroke="#2d2d5e" stroke-width="1"/>
  <text x="498" y="278" font-size="9" fill="#60A5FA">🎯 PERSPECTIVE</text>
  <rect x="494" y="286" width="114" height="30" rx="5" fill="#0f0f2e" stroke="#3d3d6e" stroke-width="1"/>
  <text x="508" y="306" font-size="11" fill="#9CA3AF">Select...</text>
  <text x="594" y="306" font-size="10" fill="#6B7280">▾</text>

  <!-- RUN button -->
  <rect x="210" y="368" width="200" height="44" rx="22" fill="#60A5FA" stroke="none"/>
  <text x="310" y="396" text-anchor="middle" font-size="14" font-weight="bold" fill="white">⚡ RUN</text>

  <!-- Caption -->
  <text x="350" y="660" text-anchor="middle" font-size="11" fill="#6B7280" font-style="italic">Main page – Configure Run</text>

  <!-- ═══════════════════════════════════════════════
       SCREEN 2: Run History
  ═══════════════════════════════════════════════ -->
  <rect x="700" y="20" width="380" height="620" rx="12" fill="#0f0f23" stroke="#2a2a4a" stroke-width="1.5"/>

  <!-- Nav bar -->
  <rect x="700" y="20" width="380" height="60" rx="12" fill="#16213e" stroke="#2a2a4a" stroke-width="1.5"/>
  <rect x="700" y="60" width="380" height="20" fill="#16213e"/>
  <text x="724" y="48" font-size="13" fill="#7B68EE">⚡</text>
  <text x="742" y="48" font-size="14" font-weight="bold" fill="white">AIVP</text>
  <text x="742" y="62" font-size="10" fill="#6B7280">AI Visual Production</text>

  <line x1="700" y1="88" x2="1080" y2="88" stroke="#2a2a4a" stroke-width="1"/>
  <text x="724" y="110" font-size="12" fill="#6B7280">⚙ Configure</text>
  <text x="820" y="110" font-size="12" fill="white">📋 Templates</text>
  <line x1="820" y1="116" x2="906" y2="116" stroke="#60A5FA" stroke-width="2"/>
  <text x="920" y="110" font-size="12" fill="#6B7280">📖 History</text>
  <text x="1005" y="110" font-size="12" fill="#6B7280">📁 Library</text>

  <text x="724" y="155" font-size="16" font-weight="bold" fill="white">Run History</text>

  <!-- Table header -->
  <rect x="720" y="165" width="340" height="30" rx="4" fill="#16213e" stroke="#2a2a4a" stroke-width="1"/>
  <text x="734" y="185" font-size="11" font-weight="bold" fill="#9CA3AF">Run</text>
  <text x="775" y="185" font-size="11" font-weight="bold" fill="#9CA3AF">Timestamp</text>
  <text x="910" y="185" font-size="11" font-weight="bold" fill="#9CA3AF">Person</text>
  <text x="990" y="185" font-size="11" font-weight="bold" fill="#9CA3AF">Platform</text>

  <!-- Row 1 -->
  <rect x="720" y="195" width="340" height="30" rx="0" fill="#1a1a3e" stroke="#2a2a4a" stroke-width="0.5"/>
  <text x="734" y="215" font-size="11" fill="white">3</text>
  <text x="775" y="215" font-size="11" fill="#D1D5DB">2026-04-01 14:44</text>
  <text x="910" y="215" font-size="11" fill="#D1D5DB">Persona_A</text>
  <text x="990" y="215" font-size="11" fill="#D1D5DB">Instagram</text>

  <!-- Row 2 -->
  <rect x="720" y="225" width="340" height="30" rx="0" fill="#0f0f23" stroke="#2a2a4a" stroke-width="0.5"/>
  <text x="734" y="245" font-size="11" fill="white">2</text>
  <text x="775" y="245" font-size="11" fill="#D1D5DB">2026-04-01 14:22</text>
  <text x="910" y="245" font-size="11" fill="#D1D5DB">Persona_B</text>
  <text x="990" y="245" font-size="11" fill="#D1D5DB">TikTok</text>

  <!-- Row 3 -->
  <rect x="720" y="255" width="340" height="30" rx="0" fill="#1a1a3e" stroke="#2a2a4a" stroke-width="0.5"/>
  <text x="734" y="275" font-size="11" fill="white">1</text>
  <text x="775" y="275" font-size="11" fill="#D1D5DB">2026-04-01 10:51</text>
  <text x="910" y="275" font-size="11" fill="#D1D5DB">Persona_A</text>
  <text x="990" y="275" font-size="11" fill="#D1D5DB">Instagram</text>

  <text x="890" y="660" text-anchor="middle" font-size="11" fill="#6B7280" font-style="italic">History view – Run History</text>

  <!-- ═══════════════════════════════════════════════
       SCREEN 3: Admin LoRA Library
  ═══════════════════════════════════════════════ -->
  <rect x="1100" y="20" width="270" height="620" rx="12" fill="#0f0f23" stroke="#2a2a4a" stroke-width="1.5"/>

  <!-- Nav bar -->
  <rect x="1100" y="20" width="270" height="60" rx="12" fill="#16213e" stroke="#2a2a4a" stroke-width="1.5"/>
  <rect x="1100" y="60" width="270" height="20" fill="#16213e"/>
  <text x="1120" y="48" font-size="13" fill="#7B68EE">⚡</text>
  <text x="1138" y="48" font-size="14" font-weight="bold" fill="white">AIVP</text>
  <text x="1138" y="62" font-size="10" fill="#6B7280">AI Visual Production</text>

  <line x1="1100" y1="88" x2="1370" y2="88" stroke="#2a2a4a" stroke-width="1"/>
  <text x="1118" y="110" font-size="12" fill="#6B7280">⚙ Configure</text>
  <text x="1200" y="110" font-size="12" fill="#6B7280">📖 History</text>
  <text x="1275" y="110" font-size="12" fill="white">📁 Library</text>
  <line x1="1275" y1="116" x2="1330" y2="116" stroke="#60A5FA" stroke-width="2"/>

  <text x="1118" y="155" font-size="16" font-weight="bold" fill="white">LoRA Library</text>

  <!-- Add button -->
  <rect x="1118" y="165" width="70" height="28" rx="6" fill="#10B981" stroke="none"/>
  <text x="1153" y="184" text-anchor="middle" font-size="11" font-weight="bold" fill="white">+ Add</text>

  <!-- Table header -->
  <rect x="1118" y="203" width="232" height="26" rx="4" fill="#16213e" stroke="#2a2a4a" stroke-width="1"/>
  <text x="1128" y="220" font-size="10" font-weight="bold" fill="#9CA3AF">Name</text>
  <text x="1210" y="220" font-size="10" font-weight="bold" fill="#9CA3AF">Category</text>
  <text x="1294" y="220" font-size="10" font-weight="bold" fill="#9CA3AF">Actions</text>

  <!-- Row 1 -->
  <rect x="1118" y="229" width="232" height="26" rx="0" fill="#1a1a3e" stroke="#2a2a4a" stroke-width="0.5"/>
  <text x="1128" y="247" font-size="10" fill="#D1D5DB">StyleLora_v2</text>
  <text x="1210" y="247" font-size="10" fill="#D1D5DB">Style</text>
  <rect x="1288" y="233" width="22" height="18" rx="3" fill="#3B82F6"/>
  <text x="1299" y="246" text-anchor="middle" font-size="10" fill="white">✏</text>
  <rect x="1316" y="233" width="22" height="18" rx="3" fill="#EF4444"/>
  <text x="1327" y="246" text-anchor="middle" font-size="10" fill="white">✕</text>

  <!-- Row 2 -->
  <rect x="1118" y="255" width="232" height="26" rx="0" fill="#0f0f23" stroke="#2a2a4a" stroke-width="0.5"/>
  <text x="1128" y="273" font-size="10" fill="#D1D5DB">LightingPro</text>
  <text x="1210" y="273" font-size="10" fill="#D1D5DB">Lighting</text>
  <rect x="1288" y="259" width="22" height="18" rx="3" fill="#3B82F6"/>
  <text x="1299" y="272" text-anchor="middle" font-size="10" fill="white">✏</text>
  <rect x="1316" y="259" width="22" height="18" rx="3" fill="#EF4444"/>
  <text x="1327" y="272" text-anchor="middle" font-size="10" fill="white">✕</text>

  <!-- Row 3 -->
  <rect x="1118" y="281" width="232" height="26" rx="0" fill="#1a1a3e" stroke="#2a2a4a" stroke-width="0.5"/>
  <text x="1128" y="299" font-size="10" fill="#D1D5DB">OutfitBase</text>
  <text x="1210" y="299" font-size="10" fill="#D1D5DB">Outfit</text>
  <rect x="1288" y="285" width="22" height="18" rx="3" fill="#3B82F6"/>
  <text x="1299" y="298" text-anchor="middle" font-size="10" fill="white">✏</text>
  <rect x="1316" y="285" width="22" height="18" rx="3" fill="#EF4444"/>
  <text x="1327" y="298" text-anchor="middle" font-size="10" fill="white">✕</text>

  <text x="1235" y="660" text-anchor="middle" font-size="11" fill="#6B7280" font-style="italic">Library view – LoRA Library (Admin)</text>

  <!-- ═══════════════════════════════════════════════
       SCREEN 4: Login
  ═══════════════════════════════════════════════ -->
  <rect x="30" y="680" width="380" height="260" rx="12" fill="#0f0f23" stroke="#2a2a4a" stroke-width="1.5"/>
  <rect x="30" y="680" width="380" height="60" rx="12" fill="#16213e" stroke="#2a2a4a" stroke-width="1.5"/>
  <rect x="30" y="720" width="380" height="20" fill="#16213e"/>
  <text x="54" y="708" font-size="13" fill="#7B68EE">⚡</text>
  <text x="72" y="708" font-size="14" font-weight="bold" fill="white">AIVP – Login</text>

  <text x="54" y="764" font-size="12" fill="#9CA3AF">Email</text>
  <rect x="54" y="772" width="332" height="32" rx="6" fill="#1a1a3e" stroke="#3d3d6e" stroke-width="1"/>
  <text x="68" y="793" font-size="11" fill="#4B5563">operator@aivp.ch</text>

  <text x="54" y="824" font-size="12" fill="#9CA3AF">Password</text>
  <rect x="54" y="832" width="332" height="32" rx="6" fill="#1a1a3e" stroke="#3d3d6e" stroke-width="1"/>
  <text x="68" y="853" font-size="11" fill="#4B5563">••••••••••</text>

  <rect x="54" y="878" width="332" height="40" rx="8" fill="#3B82F6" stroke="none"/>
  <text x="220" y="903" text-anchor="middle" font-size="14" font-weight="bold" fill="white">Login</text>

  <!-- ═══════════════════════════════════════════════
       SCREEN 5: Combo Manager
  ═══════════════════════════════════════════════ -->
  <rect x="440" y="680" width="520" height="260" rx="12" fill="#0f0f23" stroke="#2a2a4a" stroke-width="1.5"/>
  <rect x="440" y="680" width="520" height="60" rx="12" fill="#16213e" stroke="#2a2a4a" stroke-width="1.5"/>
  <rect x="440" y="720" width="520" height="20" fill="#16213e"/>
  <text x="464" y="708" font-size="13" fill="#7B68EE">⚡</text>
  <text x="482" y="708" font-size="14" font-weight="bold" fill="white">AIVP – Combo Manager</text>

  <text x="464" y="764" font-size="12" fill="#9CA3AF">Template name</text>
  <rect x="464" y="772" width="260" height="32" rx="6" fill="#1a1a3e" stroke="#3d3d6e" stroke-width="1"/>
  <text x="478" y="793" font-size="11" fill="#9CA3AF">MyTemplate</text>
  <text x="712" y="793" font-size="10" fill="#6B7280">▾</text>

  <rect x="738" y="772" width="100" height="32" rx="6" fill="#10B981" stroke="none"/>
  <text x="788" y="793" text-anchor="middle" font-size="12" font-weight="bold" fill="white">Save</text>

  <rect x="464" y="824" width="120" height="36" rx="6" fill="#3B82F6" stroke="none"/>
  <text x="524" y="847" text-anchor="middle" font-size="12" font-weight="bold" fill="white">Load</text>

  <rect x="598" y="824" width="120" height="36" rx="6" fill="#EF4444" stroke="none"/>
  <text x="658" y="847" text-anchor="middle" font-size="12" font-weight="bold" fill="white">Delete</text>

</svg>
